<svg width="15" height="16" viewBox="0 0 15 16" fill="none" xmlns="http://www.w3.org/2000/svg">
<path d="M12.5192 10.2066C12.4756 10.2502 12.4239 10.2848 12.367 10.3084C12.3101 10.332 12.2491 10.3441 12.1875 10.3441C12.1259 10.3441 12.0649 10.332 12.008 10.3084C11.9511 10.2848 11.8994 10.2502 11.8559 10.2066L7.50002 5.8502L3.14416 10.2066C3.0562 10.2946 2.93691 10.344 2.81252 10.344C2.68813 10.344 2.56883 10.2946 2.48088 10.2066C2.39292 10.1187 2.34351 9.99939 2.34351 9.875C2.34351 9.75061 2.39292 9.63132 2.48088 9.54336L7.16838 4.85586C7.21191 4.81228 7.26361 4.7777 7.32051 4.75412C7.37742 4.73053 7.43842 4.71838 7.50002 4.71838C7.56162 4.71838 7.62261 4.73053 7.67952 4.75412C7.73642 4.7777 7.78812 4.81228 7.83166 4.85586L12.5192 9.54336C12.5627 9.5869 12.5973 9.63859 12.6209 9.6955C12.6445 9.7524 12.6566 9.8134 12.6566 9.875C12.6566 9.9366 12.6445 9.9976 12.6209 10.0545C12.5973 10.1114 12.5627 10.1631 12.5192 10.2066Z" fill="white"/>
</svg>
